# xmcd
#
# Track frame offsets:
#	150
#	13889
#	31178
#	44878
#	58241
#	74637
#
# Disc length: 1190 seconds
#
# Revision: 0
# Processed by: cddbd v1.5.2PL0 Copyright (c) Steve Scherf et al.
# Submitted via: EZCDAudioConverter 4.0.4.1
#
DISCID=5b04a406
DTITLE=Taylor Swift  - Beautiful Eyes EP
DYEAR=2008
DGENRE=Country
TTITLE0=Beautiful Eyes
TTITLE1=Should've Said No [Alternate Version]
TTITLE2=Teardrops on My Guitar [Acoustic Version]
TTITLE3=Picture to Burn [Radio Edit]
TTITLE4=I'm Only Me When I'm With You
TTITLE5=I Heart?
EXTD=
EXTT0=
EXTT1=
EXTT2=
EXTT3=
EXTT4=
EXTT5=
PLAYORDER=
